<!-- Generated by IcoMoon.io -->
<svg version="1.1" xmlns="http://www.w3.org/2000/svg" width="1024" height="1024" viewBox="0 0 1024 1024">
<title></title>
<g id="icomoon-ignore">
</g>
<path fill="#000" d="M680.319 530.802l26.125-108.471c0.083-0.34 0.169-0.677 0.259-1.017 6.914-25.828 27.258-46.17 53.093-53.091l79.256-21.238c-13.005-15.508-32.509-25.388-54.282-25.388h-23.38c-5.968-18.764-13.547-37.053-22.614-54.562l16.542-16.54c27.622-27.624 27.622-72.573 0-100.193l-50.006-50.011c-13.383-13.378-31.175-20.749-50.099-20.749-18.921 0-36.713 7.373-50.096 20.753l-16.542 16.54c-17.514-9.065-35.803-16.646-54.56-22.617v-23.375c0-39.064-31.781-70.843-70.845-70.843h-70.726c-39.064 0-70.845 31.779-70.845 70.843v23.377c-18.759 5.97-37.048 13.55-54.562 22.617l-16.542-16.544c-13.383-13.378-31.175-20.749-50.096-20.749s-36.713 7.373-50.099 20.753l-50.004 50.006c-27.622 27.62-27.622 72.568 0 100.193l16.54 16.54c-9.067 17.509-16.646 35.8-22.614 54.562h-23.38c-39.061 0.002-70.843 31.781-70.843 70.847v70.726c0 39.064 31.781 70.843 70.845 70.843h23.38c5.968 18.764 13.547 37.048 22.614 54.562l-16.542 16.54c-27.624 27.624-27.624 72.568 0 100.197l50.008 50.004c13.386 13.383 31.178 20.753 50.099 20.753s36.713-7.373 50.094-20.753l16.542-16.54c17.507 9.067 35.796 16.642 54.562 22.612v23.382c0 39.064 31.781 70.847 70.845 70.847h61.34c-5.676-13.526-8.661-28.169-8.663-43.277-0.005-29.88 11.627-57.97 32.753-79.094l202.441-202.446zM427.808 617.941c-104.841 0-190.137-85.293-190.137-190.132 0-104.844 85.295-190.141 190.137-190.141s190.137 85.298 190.137 190.141c0 104.839-85.295 190.132-190.137 190.132z"></path>
<path fill="#000" d="M1010.737 457.592l-0.758-0.761c-2.232-2.236-5.203-3.394-8.416-3.491-3.152 0-6.175 1.248-8.404 3.482l-51.327 51.327c-7.853 7.855-18.298 12.181-29.412 12.181s-21.561-4.326-29.421-12.19c-7.86-7.855-12.188-18.303-12.188-29.417 0.002-11.113 4.328-21.561 12.183-29.417l51.327-51.327c2.232-2.232 3.482-5.26 3.48-8.411-0.002-3.156-1.26-6.179-3.494-8.406l-0.746-0.744c-8.568-8.568-19.962-13.291-32.083-13.291-3.957 0-7.903 0.52-11.731 1.545l-105.402 28.247c-15.61 4.183-27.905 16.475-32.081 32.076-0.026 0.097-0.050 0.19-0.074 0.288l-28.086 116.608-208.359 208.357c-15.515 15.513-24.057 36.143-24.055 58.087 0.005 21.942 8.551 42.567 24.067 58.084l4.963 4.963c15.515 15.518 36.147 24.064 58.094 24.064v0c21.939 0 42.564-8.542 58.080-24.055l208.359-208.357 116.604-28.083c0.097-0.024 0.195-0.052 0.29-0.074 15.598-4.178 27.891-16.466 32.078-32.076l28.242-105.412c4.176-15.601-0.323-32.387-11.729-43.798zM611.433 813.319c-4.487 4.49-10.455 6.964-16.806 6.964-6.348 0-12.318-2.474-16.808-6.969-4.485-4.48-6.959-10.45-6.959-16.799-0.002-6.351 2.474-12.323 6.966-16.808 4.482-4.485 10.453-6.959 16.801-6.959 6.351 0 12.321 2.474 16.808 6.964 4.485 4.48 6.959 10.448 6.959 16.799s-2.474 12.321-6.961 16.808zM751.502 664.843l-98.334 98.336c-3.365 3.365-7.843 5.222-12.604 5.222s-9.238-1.856-12.604-5.222c-3.368-3.365-5.222-7.841-5.222-12.604s1.854-9.238 5.222-12.604l98.334-98.336c3.368-3.37 7.843-5.222 12.604-5.222s9.238 1.851 12.604 5.222c3.368 3.365 5.222 7.841 5.222 12.604s-1.854 9.238-5.222 12.604z"></path>
</svg>
